<svg xmlns="http://www.w3.org/2000/svg" width="720" height="670" viewBox="0 0 720 670"><rect width="720" height="670" fill="#fff8ed"/><text x="18" y="26" font-size="15" font-family="sans-serif" fill="#694d3b">Static source-art check — not a game screenshot</text><text x="18" y="62" font-size="12" font-family="sans-serif" fill="#694d3b">strawberry</text><svg x="18" y="74" width="64" height="64" viewBox="0 0 24 24" fill="none" stroke="#694d3b" stroke-width="1.2" stroke-linecap="round" stroke-linejoin="round"><path fill="#df7581" d="M3 9c0-5 6-6 9-3 3-3 9-2 9 3 0 6-6 13-9 13S3 15 3 9z"/><path fill="#81a96e" d="m12 2 2 4 5-2-2 5-5-2-5 2-2-5 5 2z"/><path stroke="#fff0b2" d="m7 11 1 1m8-1-1 1m-3 2v1m-3 2 1 1m5-1-1 1"/></svg><svg x="18" y="149" width="20" height="20" viewBox="0 0 24 24" fill="none" stroke="#694d3b" stroke-width="1.2" stroke-linecap="round" stroke-linejoin="round"><path fill="#df7581" d="M3 9c0-5 6-6 9-3 3-3 9-2 9 3 0 6-6 13-9 13S3 15 3 9z"/><path fill="#81a96e" d="m12 2 2 4 5-2-2 5-5-2-5 2-2-5 5 2z"/><path stroke="#fff0b2" d="m7 11 1 1m8-1-1 1m-3 2v1m-3 2 1 1m5-1-1 1"/></svg><text x="135" y="62" font-size="12" font-family="sans-serif" fill="#694d3b">choco</text><svg x="135" y="74" width="64" height="64" viewBox="0 0 24 24" fill="none" stroke="#694d3b" stroke-width="1.2" stroke-linecap="round" stroke-linejoin="round"><path fill="#9c6850" d="M5 2h14v20H5z"/><path fill="none" d="M12 2v13M5 8h14M5 14h14"/><path fill="#b6c6d0" d="m3 13 6 3 4-3 8 3v7H3z"/><path fill="#d37e8a" d="M3 18h18v5H3z"/></svg><svg x="135" y="149" width="20" height="20" viewBox="0 0 24 24" fill="none" stroke="#694d3b" stroke-width="1.2" stroke-linecap="round" stroke-linejoin="round"><path fill="#9c6850" d="M5 2h14v20H5z"/><path fill="none" d="M12 2v13M5 8h14M5 14h14"/><path fill="#b6c6d0" d="m3 13 6 3 4-3 8 3v7H3z"/><path fill="#d37e8a" d="M3 18h18v5H3z"/></svg><text x="252" y="62" font-size="12" font-family="sans-serif" fill="#694d3b">cherry</text><svg x="252" y="74" width="64" height="64" viewBox="0 0 24 24" fill="none" stroke="#694d3b" stroke-width="1.2" stroke-linecap="round" stroke-linejoin="round"><path fill="none" stroke="#789363" stroke-width="1.8" d="M7 15q7-5 7-13 0 8 4 12"/><path fill="#86a66f" d="M14 3q-8-5-9 2 7 3 9-2z"/><circle fill="#cd697c" cx="6" cy="17" r="4.5"/><circle fill="#da7580" cx="18" cy="17" r="4.5"/><path stroke="#fff0da" d="m4 15 1-1m11 1 1-1"/></svg><svg x="252" y="149" width="20" height="20" viewBox="0 0 24 24" fill="none" stroke="#694d3b" stroke-width="1.2" stroke-linecap="round" stroke-linejoin="round"><path fill="none" stroke="#789363" stroke-width="1.8" d="M7 15q7-5 7-13 0 8 4 12"/><path fill="#86a66f" d="M14 3q-8-5-9 2 7 3 9-2z"/><circle fill="#cd697c" cx="6" cy="17" r="4.5"/><circle fill="#da7580" cx="18" cy="17" r="4.5"/><path stroke="#fff0da" d="m4 15 1-1m11 1 1-1"/></svg><text x="369" y="62" font-size="12" font-family="sans-serif" fill="#694d3b">rice</text><svg x="369" y="74" width="64" height="64" viewBox="0 0 24 24" fill="none" stroke="#694d3b" stroke-width="1.2" stroke-linecap="round" stroke-linejoin="round"><path fill="#fff5df" d="M9 3q3-3 6 0l8 14q2 5-4 5H5q-6 0-4-5z"/><path fill="#516b58" d="M8 13h8v9H8z"/><path stroke="#d8ccae" d="M7 10h1m8-1h1M4 17h1m14 1h1"/></svg><svg x="369" y="149" width="20" height="20" viewBox="0 0 24 24" fill="none" stroke="#694d3b" stroke-width="1.2" stroke-linecap="round" stroke-linejoin="round"><path fill="#fff5df" d="M9 3q3-3 6 0l8 14q2 5-4 5H5q-6 0-4-5z"/><path fill="#516b58" d="M8 13h8v9H8z"/><path stroke="#d8ccae" d="M7 10h1m8-1h1M4 17h1m14 1h1"/></svg><text x="486" y="62" font-size="12" font-family="sans-serif" fill="#694d3b">egg</text><svg x="486" y="74" width="64" height="64" viewBox="0 0 24 24" fill="none" stroke="#694d3b" stroke-width="1.2" stroke-linecap="round" stroke-linejoin="round"><path fill="#fff5df" d="M12 2C7 2 3 10 3 15a9 7 0 0 0 18 0c0-5-4-13-9-13z"/><ellipse fill="#efc35f" cx="12" cy="14" rx="5.5" ry="6"/><path fill="none" stroke="#fff0b2" d="M9 11q3-3 5 0"/></svg><svg x="486" y="149" width="20" height="20" viewBox="0 0 24 24" fill="none" stroke="#694d3b" stroke-width="1.2" stroke-linecap="round" stroke-linejoin="round"><path fill="#fff5df" d="M12 2C7 2 3 10 3 15a9 7 0 0 0 18 0c0-5-4-13-9-13z"/><ellipse fill="#efc35f" cx="12" cy="14" rx="5.5" ry="6"/><path fill="none" stroke="#fff0b2" d="M9 11q3-3 5 0"/></svg><text x="603" y="62" font-size="12" font-family="sans-serif" fill="#694d3b">shrimp</text><svg x="603" y="74" width="64" height="64" viewBox="0 0 24 24" fill="none" stroke="#694d3b" stroke-width="1.2" stroke-linecap="round" stroke-linejoin="round"><path fill="#e18471" d="m4 8-3-6 6 2 1 5zm1 0 4-6 2 5-3 4z"/><path fill="#e8b15f" d="M6 7c3-2 7 2 6 6 0 4 4 3 5 0 1-4 6-3 6 0 0 9-13 12-17 4C4 13 3 9 6 7z"/><path fill="none" stroke="#f8d88d" stroke-width="1.5" d="m7 10 2 1m-2 4 2 1m2 3h2m3-2 1-1m3-3v-1"/></svg><svg x="603" y="149" width="20" height="20" viewBox="0 0 24 24" fill="none" stroke="#694d3b" stroke-width="1.2" stroke-linecap="round" stroke-linejoin="round"><path fill="#e18471" d="m4 8-3-6 6 2 1 5zm1 0 4-6 2 5-3 4z"/><path fill="#e8b15f" d="M6 7c3-2 7 2 6 6 0 4 4 3 5 0 1-4 6-3 6 0 0 9-13 12-17 4C4 13 3 9 6 7z"/><path fill="none" stroke="#f8d88d" stroke-width="1.5" d="m7 10 2 1m-2 4 2 1m2 3h2m3-2 1-1m3-3v-1"/></svg><text x="18" y="222" font-size="12" font-family="sans-serif" fill="#694d3b">broccoli</text><svg x="18" y="234" width="64" height="64" viewBox="0 0 24 24" fill="none" stroke="#694d3b" stroke-width="1.2" stroke-linecap="round" stroke-linejoin="round"><path fill="#9ab779" d="M9 13h6l2 9H7z"/><path fill="none" d="m12 19-5-8m5 8 5-8"/><path fill="#699861" d="M5 14a5 5 0 0 1-2-9 5 5 0 0 1 8-2 5 5 0 0 1 8 2 5 5 0 0 1 1 9c-3 2-5-1-8 0-3-1-4 2-7 0z"/><path fill="none" stroke="#a6c486" d="M5 7q2-2 4 0m5-1q3-2 4 1m-9 3q2-2 4 0"/></svg><svg x="18" y="309" width="20" height="20" viewBox="0 0 24 24" fill="none" stroke="#694d3b" stroke-width="1.2" stroke-linecap="round" stroke-linejoin="round"><path fill="#9ab779" d="M9 13h6l2 9H7z"/><path fill="none" d="m12 19-5-8m5 8 5-8"/><path fill="#699861" d="M5 14a5 5 0 0 1-2-9 5 5 0 0 1 8-2 5 5 0 0 1 8 2 5 5 0 0 1 1 9c-3 2-5-1-8 0-3-1-4 2-7 0z"/><path fill="none" stroke="#a6c486" d="M5 7q2-2 4 0m5-1q3-2 4 1m-9 3q2-2 4 0"/></svg><text x="135" y="222" font-size="12" font-family="sans-serif" fill="#694d3b">slice</text><svg x="135" y="234" width="64" height="64" viewBox="0 0 24 24" fill="none" stroke="#694d3b" stroke-width="1.2" stroke-linecap="round" stroke-linejoin="round"><path fill="#f4d7ac" d="m2 10 20-6v15L2 23z"/><path fill="#ef9b9e" d="m2 14 20-5v4L2 18z"/><path fill="#fff5df" d="m2 10 14-9 6 3v4L2 14z"/><path fill="#df7581" d="M13 4c0-3 6-4 6-1 0 2-2 4-3 4s-3-2-3-3z"/><path fill="#81a96e" d="m16 1 1 1 2-1-1 2-2-1-2 1 1-2z"/></svg><svg x="135" y="309" width="20" height="20" viewBox="0 0 24 24" fill="none" stroke="#694d3b" stroke-width="1.2" stroke-linecap="round" stroke-linejoin="round"><path fill="#f4d7ac" d="m2 10 20-6v15L2 23z"/><path fill="#ef9b9e" d="m2 14 20-5v4L2 18z"/><path fill="#fff5df" d="m2 10 14-9 6 3v4L2 14z"/><path fill="#df7581" d="M13 4c0-3 6-4 6-1 0 2-2 4-3 4s-3-2-3-3z"/><path fill="#81a96e" d="m16 1 1 1 2-1-1 2-2-1-2 1 1-2z"/></svg><text x="252" y="222" font-size="12" font-family="sans-serif" fill="#694d3b">bento</text><svg x="252" y="234" width="64" height="64" viewBox="0 0 24 24" fill="none" stroke="#694d3b" stroke-width="1.2" stroke-linecap="round" stroke-linejoin="round"><rect fill="#be7d66" x="1" y="3" width="22" height="19" rx="4"/><path fill="#fff5df" d="M4 6h8v13H4z"/><path fill="#526d59" d="M6 13h4v5H6z"/><circle fill="#82a36e" cx="17" cy="9" r="3"/><ellipse fill="#efc35f" cx="17" cy="16" rx="3" ry="2.5"/></svg><svg x="252" y="309" width="20" height="20" viewBox="0 0 24 24" fill="none" stroke="#694d3b" stroke-width="1.2" stroke-linecap="round" stroke-linejoin="round"><rect fill="#be7d66" x="1" y="3" width="22" height="19" rx="4"/><path fill="#fff5df" d="M4 6h8v13H4z"/><path fill="#526d59" d="M6 13h4v5H6z"/><circle fill="#82a36e" cx="17" cy="9" r="3"/><ellipse fill="#efc35f" cx="17" cy="16" rx="3" ry="2.5"/></svg><text x="369" y="222" font-size="12" font-family="sans-serif" fill="#694d3b">lock</text><svg x="369" y="234" width="64" height="64" viewBox="0 0 24 24" fill="none" stroke="#694d3b" stroke-width="1.2" stroke-linecap="round" stroke-linejoin="round"><path fill="none" stroke-width="2.4" d="M6 11V7a6 6 0 0 1 12 0v4"/><rect fill="#b9b4ab" x="3" y="10" width="18" height="12" rx="3"/><circle fill="#694d3b" cx="12" cy="15" r="1.4"/><path d="M12 16v3"/></svg><svg x="369" y="309" width="20" height="20" viewBox="0 0 24 24" fill="none" stroke="#694d3b" stroke-width="1.2" stroke-linecap="round" stroke-linejoin="round"><path fill="none" stroke-width="2.4" d="M6 11V7a6 6 0 0 1 12 0v4"/><rect fill="#b9b4ab" x="3" y="10" width="18" height="12" rx="3"/><circle fill="#694d3b" cx="12" cy="15" r="1.4"/><path d="M12 16v3"/></svg><text x="486" y="222" font-size="12" font-family="sans-serif" fill="#694d3b">check</text><svg x="486" y="234" width="64" height="64" viewBox="0 0 24 24" fill="none" stroke="#694d3b" stroke-width="1.2" stroke-linecap="round" stroke-linejoin="round"><rect fill="#80a779" x="2" y="2" width="20" height="20" rx="5"/><path fill="none" stroke="#fff5df" stroke-width="2.6" d="m6 12 4 5 8-10"/></svg><svg x="486" y="309" width="20" height="20" viewBox="0 0 24 24" fill="none" stroke="#694d3b" stroke-width="1.2" stroke-linecap="round" stroke-linejoin="round"><rect fill="#80a779" x="2" y="2" width="20" height="20" rx="5"/><path fill="none" stroke="#fff5df" stroke-width="2.6" d="m6 12 4 5 8-10"/></svg><text x="603" y="222" font-size="12" font-family="sans-serif" fill="#694d3b">trophy</text><svg x="603" y="234" width="64" height="64" viewBox="0 0 24 24" fill="none" stroke="#694d3b" stroke-width="1.2" stroke-linecap="round" stroke-linejoin="round"><path fill="#f4c85e" d="M7 3h10v8a5 5 0 0 1-10 0z"/><path fill="none" d="M7 5H2v3q0 5 5 5m10-8h5v3q0 5-5 5M12 16v4"/><path fill="#dcaa57" d="M7 20h10v3H7z"/></svg><svg x="603" y="309" width="20" height="20" viewBox="0 0 24 24" fill="none" stroke="#694d3b" stroke-width="1.2" stroke-linecap="round" stroke-linejoin="round"><path fill="#f4c85e" d="M7 3h10v8a5 5 0 0 1-10 0z"/><path fill="none" d="M7 5H2v3q0 5 5 5m10-8h5v3q0 5-5 5M12 16v4"/><path fill="#dcaa57" d="M7 20h10v3H7z"/></svg><text x="18" y="382" font-size="12" font-family="sans-serif" fill="#694d3b">diamond</text><svg x="18" y="394" width="64" height="64" viewBox="0 0 24 24" fill="none" stroke="#694d3b" stroke-width="1.2" stroke-linecap="round" stroke-linejoin="round"><path fill="#99c6cf" d="m2 8 5-6h10l5 6-10 14z"/><path fill="#d9eef0" d="m7 2 5 6 5-6z"/><path fill="none" d="M2 8h20M7 2l-1 6 6 14 6-14-1-6"/></svg><svg x="18" y="469" width="20" height="20" viewBox="0 0 24 24" fill="none" stroke="#694d3b" stroke-width="1.2" stroke-linecap="round" stroke-linejoin="round"><path fill="#99c6cf" d="m2 8 5-6h10l5 6-10 14z"/><path fill="#d9eef0" d="m7 2 5 6 5-6z"/><path fill="none" d="M2 8h20M7 2l-1 6 6 14 6-14-1-6"/></svg><text x="135" y="382" font-size="12" font-family="sans-serif" fill="#694d3b">galaxy</text><svg x="135" y="394" width="64" height="64" viewBox="0 0 24 24" fill="none" stroke="#694d3b" stroke-width="1.2" stroke-linecap="round" stroke-linejoin="round"><circle fill="#5b6399" cx="12" cy="12" r="10"/><path fill="none" stroke="#b8cee3" stroke-width="2.2" d="M4 16C6 4 20 5 20 10c0 7-14 9-14 5 0-4 10-7 10-4 0 2-5 5-6 3"/><path fill="#fff0b2" stroke="none" d="m7 3 1 2 2 1-2 1-1 2-1-2-2-1 2-1zm11 12 1 2 2 1-2 1-1 2-1-2-2-1 2-1z"/></svg><svg x="135" y="469" width="20" height="20" viewBox="0 0 24 24" fill="none" stroke="#694d3b" stroke-width="1.2" stroke-linecap="round" stroke-linejoin="round"><circle fill="#5b6399" cx="12" cy="12" r="10"/><path fill="none" stroke="#b8cee3" stroke-width="2.2" d="M4 16C6 4 20 5 20 10c0 7-14 9-14 5 0-4 10-7 10-4 0 2-5 5-6 3"/><path fill="#fff0b2" stroke="none" d="m7 3 1 2 2 1-2 1-1 2-1-2-2-1 2-1zm11 12 1 2 2 1-2 1-1 2-1-2-2-1 2-1z"/></svg><text x="252" y="382" font-size="12" font-family="sans-serif" fill="#694d3b">clock</text><svg x="252" y="394" width="64" height="64" viewBox="0 0 24 24" fill="none" stroke="#694d3b" stroke-width="1.2" stroke-linecap="round" stroke-linejoin="round"><circle fill="#d5b47c" cx="12" cy="12" r="10"/><circle fill="#fff5df" cx="12" cy="12" r="7.5"/><path fill="none" stroke-width="1.8" d="M12 6v6l4 3"/><path d="M12 3v1m9 8h-1M12 21v-1M3 12h1"/></svg><svg x="252" y="469" width="20" height="20" viewBox="0 0 24 24" fill="none" stroke="#694d3b" stroke-width="1.2" stroke-linecap="round" stroke-linejoin="round"><circle fill="#d5b47c" cx="12" cy="12" r="10"/><circle fill="#fff5df" cx="12" cy="12" r="7.5"/><path fill="none" stroke-width="1.8" d="M12 6v6l4 3"/><path d="M12 3v1m9 8h-1M12 21v-1M3 12h1"/></svg><text x="369" y="382" font-size="12" font-family="sans-serif" fill="#694d3b">speech</text><svg x="369" y="394" width="64" height="64" viewBox="0 0 24 24" fill="none" stroke="#694d3b" stroke-width="1.2" stroke-linecap="round" stroke-linejoin="round"><path fill="#fff5df" d="M3 3h18v14H10l-6 5v-5H3z"/><path fill="none" d="M7 8h10M7 12h7"/></svg><svg x="369" y="469" width="20" height="20" viewBox="0 0 24 24" fill="none" stroke="#694d3b" stroke-width="1.2" stroke-linecap="round" stroke-linejoin="round"><path fill="#fff5df" d="M3 3h18v14H10l-6 5v-5H3z"/><path fill="none" d="M7 8h10M7 12h7"/></svg><text x="486" y="382" font-size="12" font-family="sans-serif" fill="#694d3b">cycle</text><svg x="486" y="394" width="64" height="64" viewBox="0 0 24 24" fill="none" stroke="#694d3b" stroke-width="1.2" stroke-linecap="round" stroke-linejoin="round"><path fill="none" stroke="#83a6a5" stroke-width="2.5" d="M4 9a8 8 0 0 1 14-3M20 15A8 8 0 0 1 6 18"/><path fill="#83a6a5" d="m14 6 6-5v8zm-4 12-6 5v-8z"/></svg><svg x="486" y="469" width="20" height="20" viewBox="0 0 24 24" fill="none" stroke="#694d3b" stroke-width="1.2" stroke-linecap="round" stroke-linejoin="round"><path fill="none" stroke="#83a6a5" stroke-width="2.5" d="M4 9a8 8 0 0 1 14-3M20 15A8 8 0 0 1 6 18"/><path fill="#83a6a5" d="m14 6 6-5v8zm-4 12-6 5v-8z"/></svg><rect x="18" y="540" width="684" height="75" rx="8" fill="#322d49"/><svg x="30" y="560" width="24" height="24" viewBox="0 0 24 24" aria-hidden="true" focusable="false" fill="none" stroke="#694d3b" stroke-width="1.2" stroke-linecap="round" stroke-linejoin="round"><path fill="#df7581" d="M3 9c0-5 6-6 9-3 3-3 9-2 9 3 0 6-6 13-9 13S3 15 3 9z"/><path fill="#81a96e" d="m12 2 2 4 5-2-2 5-5-2-5 2-2-5 5 2z"/><path stroke="#fff0b2" d="m7 11 1 1m8-1-1 1m-3 2v1m-3 2 1 1m5-1-1 1"/></svg><svg x="68" y="560" width="24" height="24" viewBox="0 0 24 24" aria-hidden="true" focusable="false" fill="none" stroke="#694d3b" stroke-width="1.2" stroke-linecap="round" stroke-linejoin="round"><path fill="#9c6850" d="M5 2h14v20H5z"/><path fill="none" d="M12 2v13M5 8h14M5 14h14"/><path fill="#b6c6d0" d="m3 13 6 3 4-3 8 3v7H3z"/><path fill="#d37e8a" d="M3 18h18v5H3z"/></svg><svg x="106" y="560" width="24" height="24" viewBox="0 0 24 24" aria-hidden="true" focusable="false" fill="none" stroke="#694d3b" stroke-width="1.2" stroke-linecap="round" stroke-linejoin="round"><path fill="none" stroke="#789363" stroke-width="1.8" d="M7 15q7-5 7-13 0 8 4 12"/><path fill="#86a66f" d="M14 3q-8-5-9 2 7 3 9-2z"/><circle fill="#cd697c" cx="6" cy="17" r="4.5"/><circle fill="#da7580" cx="18" cy="17" r="4.5"/><path stroke="#fff0da" d="m4 15 1-1m11 1 1-1"/></svg><svg x="144" y="560" width="24" height="24" viewBox="0 0 24 24" aria-hidden="true" focusable="false" fill="none" stroke="#694d3b" stroke-width="1.2" stroke-linecap="round" stroke-linejoin="round"><path fill="#fff5df" d="M9 3q3-3 6 0l8 14q2 5-4 5H5q-6 0-4-5z"/><path fill="#516b58" d="M8 13h8v9H8z"/><path stroke="#d8ccae" d="M7 10h1m8-1h1M4 17h1m14 1h1"/></svg><svg x="182" y="560" width="24" height="24" viewBox="0 0 24 24" aria-hidden="true" focusable="false" fill="none" stroke="#694d3b" stroke-width="1.2" stroke-linecap="round" stroke-linejoin="round"><path fill="#fff5df" d="M12 2C7 2 3 10 3 15a9 7 0 0 0 18 0c0-5-4-13-9-13z"/><ellipse fill="#efc35f" cx="12" cy="14" rx="5.5" ry="6"/><path fill="none" stroke="#fff0b2" d="M9 11q3-3 5 0"/></svg><svg x="220" y="560" width="24" height="24" viewBox="0 0 24 24" aria-hidden="true" focusable="false" fill="none" stroke="#694d3b" stroke-width="1.2" stroke-linecap="round" stroke-linejoin="round"><path fill="#e18471" d="m4 8-3-6 6 2 1 5zm1 0 4-6 2 5-3 4z"/><path fill="#e8b15f" d="M6 7c3-2 7 2 6 6 0 4 4 3 5 0 1-4 6-3 6 0 0 9-13 12-17 4C4 13 3 9 6 7z"/><path fill="none" stroke="#f8d88d" stroke-width="1.5" d="m7 10 2 1m-2 4 2 1m2 3h2m3-2 1-1m3-3v-1"/></svg><svg x="258" y="560" width="24" height="24" viewBox="0 0 24 24" aria-hidden="true" focusable="false" fill="none" stroke="#694d3b" stroke-width="1.2" stroke-linecap="round" stroke-linejoin="round"><path fill="#9ab779" d="M9 13h6l2 9H7z"/><path fill="none" d="m12 19-5-8m5 8 5-8"/><path fill="#699861" d="M5 14a5 5 0 0 1-2-9 5 5 0 0 1 8-2 5 5 0 0 1 8 2 5 5 0 0 1 1 9c-3 2-5-1-8 0-3-1-4 2-7 0z"/><path fill="none" stroke="#a6c486" d="M5 7q2-2 4 0m5-1q3-2 4 1m-9 3q2-2 4 0"/></svg><svg x="296" y="560" width="24" height="24" viewBox="0 0 24 24" aria-hidden="true" focusable="false" fill="none" stroke="#694d3b" stroke-width="1.2" stroke-linecap="round" stroke-linejoin="round"><path fill="#f4d7ac" d="m2 10 20-6v15L2 23z"/><path fill="#ef9b9e" d="m2 14 20-5v4L2 18z"/><path fill="#fff5df" d="m2 10 14-9 6 3v4L2 14z"/><path fill="#df7581" d="M13 4c0-3 6-4 6-1 0 2-2 4-3 4s-3-2-3-3z"/><path fill="#81a96e" d="m16 1 1 1 2-1-1 2-2-1-2 1 1-2z"/></svg><svg x="334" y="560" width="24" height="24" viewBox="0 0 24 24" aria-hidden="true" focusable="false" fill="none" stroke="#694d3b" stroke-width="1.2" stroke-linecap="round" stroke-linejoin="round"><rect fill="#be7d66" x="1" y="3" width="22" height="19" rx="4"/><path fill="#fff5df" d="M4 6h8v13H4z"/><path fill="#526d59" d="M6 13h4v5H6z"/><circle fill="#82a36e" cx="17" cy="9" r="3"/><ellipse fill="#efc35f" cx="17" cy="16" rx="3" ry="2.5"/></svg><svg x="372" y="560" width="24" height="24" viewBox="0 0 24 24" aria-hidden="true" focusable="false" fill="none" stroke="#694d3b" stroke-width="1.2" stroke-linecap="round" stroke-linejoin="round"><path fill="none" stroke-width="2.4" d="M6 11V7a6 6 0 0 1 12 0v4"/><rect fill="#b9b4ab" x="3" y="10" width="18" height="12" rx="3"/><circle fill="#694d3b" cx="12" cy="15" r="1.4"/><path d="M12 16v3"/></svg><svg x="410" y="560" width="24" height="24" viewBox="0 0 24 24" aria-hidden="true" focusable="false" fill="none" stroke="#694d3b" stroke-width="1.2" stroke-linecap="round" stroke-linejoin="round"><rect fill="#80a779" x="2" y="2" width="20" height="20" rx="5"/><path fill="none" stroke="#fff5df" stroke-width="2.6" d="m6 12 4 5 8-10"/></svg><svg x="448" y="560" width="24" height="24" viewBox="0 0 24 24" aria-hidden="true" focusable="false" fill="none" stroke="#694d3b" stroke-width="1.2" stroke-linecap="round" stroke-linejoin="round"><path fill="#f4c85e" d="M7 3h10v8a5 5 0 0 1-10 0z"/><path fill="none" d="M7 5H2v3q0 5 5 5m10-8h5v3q0 5-5 5M12 16v4"/><path fill="#dcaa57" d="M7 20h10v3H7z"/></svg><svg x="486" y="560" width="24" height="24" viewBox="0 0 24 24" aria-hidden="true" focusable="false" fill="none" stroke="#694d3b" stroke-width="1.2" stroke-linecap="round" stroke-linejoin="round"><path fill="#99c6cf" d="m2 8 5-6h10l5 6-10 14z"/><path fill="#d9eef0" d="m7 2 5 6 5-6z"/><path fill="none" d="M2 8h20M7 2l-1 6 6 14 6-14-1-6"/></svg><svg x="524" y="560" width="24" height="24" viewBox="0 0 24 24" aria-hidden="true" focusable="false" fill="none" stroke="#694d3b" stroke-width="1.2" stroke-linecap="round" stroke-linejoin="round"><circle fill="#5b6399" cx="12" cy="12" r="10"/><path fill="none" stroke="#b8cee3" stroke-width="2.2" d="M4 16C6 4 20 5 20 10c0 7-14 9-14 5 0-4 10-7 10-4 0 2-5 5-6 3"/><path fill="#fff0b2" stroke="none" d="m7 3 1 2 2 1-2 1-1 2-1-2-2-1 2-1zm11 12 1 2 2 1-2 1-1 2-1-2-2-1 2-1z"/></svg><svg x="562" y="560" width="24" height="24" viewBox="0 0 24 24" aria-hidden="true" focusable="false" fill="none" stroke="#694d3b" stroke-width="1.2" stroke-linecap="round" stroke-linejoin="round"><circle fill="#d5b47c" cx="12" cy="12" r="10"/><circle fill="#fff5df" cx="12" cy="12" r="7.5"/><path fill="none" stroke-width="1.8" d="M12 6v6l4 3"/><path d="M12 3v1m9 8h-1M12 21v-1M3 12h1"/></svg><svg x="600" y="560" width="24" height="24" viewBox="0 0 24 24" aria-hidden="true" focusable="false" fill="none" stroke="#694d3b" stroke-width="1.2" stroke-linecap="round" stroke-linejoin="round"><path fill="#fff5df" d="M3 3h18v14H10l-6 5v-5H3z"/><path fill="none" d="M7 8h10M7 12h7"/></svg><svg x="638" y="560" width="24" height="24" viewBox="0 0 24 24" aria-hidden="true" focusable="false" fill="none" stroke="#694d3b" stroke-width="1.2" stroke-linecap="round" stroke-linejoin="round"><path fill="none" stroke="#83a6a5" stroke-width="2.5" d="M4 9a8 8 0 0 1 14-3M20 15A8 8 0 0 1 6 18"/><path fill="#83a6a5" d="m14 6 6-5v8zm-4 12-6 5v-8z"/></svg><text x="18" y="646" font-size="12" font-family="sans-serif" fill="#694d3b">9 food drawings + 8 notice symbols; existing birthday cake reused separately.</text></svg>